<?xml version="1.0" encoding="UTF-8"?>
<svg version="1.1" xmlns="http://www.w3.org/2000/svg" width="1600" height="1200">
<path d="M0 0 C3.52912095 0.01609355 7.05709464 0.00002393 10.58618164 -0.01904297 C69.18152768 -0.07384481 136.63949903 14.28358858 181.59594727 54.39111328 C182.56661133 55.23029297 183.53727539 56.06947266 184.53735352 56.93408203 C196.25090519 67.20688937 205.80298617 78.90385363 213.59594727 92.39111328 C213.93722656 92.98166504 214.27850586 93.5722168 214.63012695 94.18066406 C239.3309734 137.94489104 237.04564253 189.64809074 237.0048205 238.19050197 C236.9995278 245.57745109 237.01408589 252.96432714 237.03014475 260.35125594 C237.05858864 273.54503803 237.07625236 286.73880772 237.0847168 299.93261719 C237.08522398 300.71704411 237.08573115 301.50147103 237.0862537 302.30966847 C237.0902871 308.67653377 237.09378403 315.04339934 237.09725094 321.41026497 C237.10031114 326.99128358 237.10358317 332.57230202 237.10717773 338.15332031 C237.10793166 339.33302668 237.10793166 339.33302668 237.10870081 340.5365655 C237.1174788 353.70344657 237.13797294 366.87028503 237.16665983 380.03713739 C237.18370289 388.1149918 237.19048708 396.1927248 237.18335378 404.27059476 C237.17863728 410.46529216 237.1892205 416.65988013 237.20510292 422.85455704 C237.20907164 425.37424951 237.2080394 427.89395622 237.20133018 430.41364288 C237.09781721 472.55743539 247.52896978 505.26171737 273.95874023 538.08349609 C281.83506402 547.88650268 285.85591813 554.28419325 286.09204102 567.14501953 C285.0008369 574.28510317 280.7349348 578.68707864 275.53344727 583.26611328 C274.67299805 584.04245117 274.67299805 584.04245117 273.79516602 584.83447266 C269.45189134 588.72131913 264.95422032 592.40017327 260.40844727 596.04736328 C257.19744664 598.72319713 254.14568592 601.53472466 251.09594727 604.39111328 C246.31280685 608.8702942 241.38779519 613.07562959 236.27563477 617.18017578 C233.46341412 619.50046279 230.77797464 621.92182462 228.09594727 624.39111328 C223.73092612 628.40471323 219.23371289 632.18095992 214.61938477 635.90283203 C211.00954838 638.87371805 207.49119332 641.94016163 203.97094727 645.01611328 C185.98767443 660.67081177 185.98767443 660.67081177 175.28344727 660.70361328 C174.02918945 660.72037109 172.77493164 660.73712891 171.48266602 660.75439453 C162.93652278 659.95560928 158.07676168 656.60475266 152.09594727 650.64111328 C150.77786754 649.36541138 149.45886814 648.09065898 148.13891602 646.81689453 C147.52064941 646.21441895 146.90238281 645.61194336 146.26538086 644.99121094 C144.38000132 643.18413614 142.41955774 641.49399827 140.40844727 639.82861328 C126.7514352 627.93001478 115.881938 612.87761242 105.89282227 597.88330078 C105.30557373 597.00367676 104.7183252 596.12405273 104.11328125 595.21777344 C102.99738043 593.5312179 101.89473012 591.83580155 100.80712891 590.13085938 C100.31075928 589.37627441 99.81438965 588.62168945 99.30297852 587.84423828 C98.66066284 586.84118652 98.66066284 586.84118652 98.00537109 585.81787109 C97.54026123 585.34704102 97.07515137 584.87621094 96.59594727 584.39111328 C92.64122252 583.97192166 92.64122252 583.97192166 90.38867188 586.17602539 C89.59984619 586.99852783 88.81102051 587.82103027 87.99829102 588.66845703 C87.11334961 589.5753125 86.2284082 590.48216797 85.31665039 591.41650391 C84.38812081 592.3864464 83.46038856 593.3571528 82.53344727 594.32861328 C75.57298157 601.56085421 68.4571278 608.14955305 60.59594727 614.39111328 C59.53250448 615.28882473 58.4738409 616.19229286 57.42407227 617.10595703 C10.51921581 657.54362874 -53.09008444 670.22875005 -113.72045898 665.82861328 C-158.92851193 661.88511359 -202.20511576 644.39136202 -231.98217773 609.15380859 C-236.53010296 603.51575569 -240.52304275 597.49996783 -244.40405273 591.39111328 C-244.7751416 590.81280762 -245.14623047 590.23450195 -245.52856445 589.63867188 C-255.96833324 573.14393346 -262.18538071 554.34658999 -266.40405273 535.39111328 C-266.61578125 534.44107422 -266.82750977 533.49103516 -267.0456543 532.51220703 C-273.48491359 501.85684266 -273.10484837 466.95265687 -266.40405273 436.39111328 C-266.18974609 435.3957959 -265.97543945 434.40047852 -265.75463867 433.375 C-255.76362966 388.41545944 -230.48766276 348.73962002 -193.40405273 321.39111328 C-191.81270508 320.21742188 -191.81270508 320.21742188 -190.18920898 319.02001953 C-143.14055565 285.46368706 -85.60963155 272.50163439 -29.40405273 264.39111328 C-28.64020264 264.28067688 -27.87635254 264.17024048 -27.08935547 264.05645752 C0.80680149 260.05442393 28.84801632 257.63653332 56.92407227 255.30908203 C58.04511856 255.21560486 59.16616486 255.12212769 60.32118225 255.02581787 C61.35448166 254.94164612 62.38778107 254.85747437 63.45239258 254.77075195 C64.80364227 254.6601368 64.80364227 254.6601368 66.18218994 254.54728699 C68.31628047 254.40920814 70.45739445 254.39111328 72.59594727 254.39111328 C72.50087196 248.06358093 72.39448524 241.73636454 72.27856445 235.40917969 C72.24078517 233.266326 72.20585402 231.12341978 72.17407227 228.98046875 C72.01052569 218.07906728 71.74403734 207.23051727 70.67016602 196.37548828 C70.59251007 195.58833435 70.51485413 194.80118042 70.43484497 193.99017334 C68.35933288 174.9164409 61.9978653 154.86609855 46.59594727 142.39111328 C26.37975804 128.00326831 2.24652193 122.245684 -22.33764648 126.08251953 C-47.38049193 130.63209182 -69.90944011 141.99058877 -85.53295898 162.55126953 C-91.93918034 172.2742819 -96.06506254 182.63425064 -99.33374023 193.75439453 C-102.31249709 203.87564502 -105.34504341 210.9760353 -114.84155273 216.32861328 C-121.99905398 218.46330663 -129.33498472 217.16753251 -136.62451172 216.22949219 C-137.61584106 216.10590836 -138.60717041 215.98232452 -139.62854004 215.85499573 C-142.88638452 215.44749534 -146.14326626 215.03280703 -149.40014648 214.61767578 C-151.67639815 214.33069248 -153.9526897 214.04402543 -156.22901917 213.75765991 C-160.99293271 213.15721932 -165.75638469 212.55327145 -170.51953125 211.94677734 C-176.60915548 211.17162151 -182.69978185 210.40469592 -188.79077053 209.64034462 C-193.48989028 209.04981498 -198.18847991 208.45515244 -202.88691902 207.85923386 C-205.13173235 207.57496862 -207.3766995 207.2919153 -209.62182426 207.01012039 C-212.76649268 206.61473806 -215.91041217 206.21384593 -219.05419922 205.81152344 C-219.97239944 205.69715439 -220.89059967 205.58278534 -221.83662415 205.46495056 C-242.15510517 202.83848195 -242.15510517 202.83848195 -248.84155273 194.26611328 C-253.55747327 185.5888195 -251.10851153 176.65911699 -248.84155273 167.57861328 C-248.56980225 166.47984863 -248.29805176 165.38108398 -248.01806641 164.24902344 C-241.98164603 140.49234422 -232.65357713 117.45833918 -218.40405273 97.39111328 C-217.68733398 96.37146484 -216.97061523 95.35181641 -216.23217773 94.30126953 C-209.41558665 84.91032756 -201.61366602 76.57424394 -193.40405273 68.39111328 C-192.41405273 67.34890625 -192.41405273 67.34890625 -191.40405273 66.28564453 C-159.1075309 32.66446067 -110.73340565 14.99870615 -66.02905273 6.14111328 C-64.27782104 5.78968262 -64.27782104 5.78968262 -62.49121094 5.43115234 C-41.76149903 1.52321828 -21.0793521 -0.11368246 0 0 Z M39.97094727 349.20361328 C39.28683777 349.24746155 38.60272827 349.29130981 37.89788818 349.33648682 C-5.62768317 352.16681409 -47.19087495 361.09404257 -77.82348633 394.56054688 C-96.88225218 416.63385957 -102.02907251 447.08868559 -100.40405273 475.39111328 C-98.38946504 498.47934854 -90.7361122 519.62465144 -73.18530273 535.38330078 C-58.55004785 547.3903937 -40.91808491 551.07489047 -22.40405273 549.39111328 C-10.62563561 547.97711406 -0.41234307 544.21470141 9.86499023 538.37304688 C11.38454981 537.51103438 12.92809831 536.69159842 14.47485352 535.87939453 C27.86546078 528.276084 39.01549993 515.59764492 46.52758789 502.28076172 C47.69331426 500.21889652 48.90171583 498.18518189 50.11157227 496.14892578 C71.59462207 459.41906241 72.80471685 420.17535786 72.66461182 378.66766357 C72.65418782 375.2408512 72.64977432 371.81403085 72.64477539 368.38720703 C72.6338829 361.72182252 72.61725176 355.05647224 72.59594727 348.39111328 C61.68232714 348.29275451 50.86653606 348.49660098 39.97094727 349.20361328 Z " fill="#000000" transform="translate(826.404052734375,105.60888671875)"/>
<path d="M0 0 C3.28960573 1.76768146 6.51425696 3.62023691 9.73339844 5.51318359 C11.5280791 6.54381278 13.32620347 7.56823559 15.1247406 8.59211731 C16.34193757 9.28515721 17.55821546 9.97981376 18.77357483 10.67607117 C24.54019847 13.97305475 30.39723451 17.08394451 36.29589844 20.13818359 C37.72772461 20.87959595 37.72772461 20.87959595 39.18847656 21.63598633 C41.82574003 22.99625664 44.46605342 24.35031536 47.10839844 25.70068359 C47.79272949 26.05114746 48.47706055 26.40161133 49.18212891 26.76269531 C53.00161541 28.71237897 56.83880367 30.62337803 60.68896484 32.51171875 C62.4769782 33.39038929 64.26278171 34.27355996 66.04736328 35.15917969 C96.98680246 50.49220414 128.69804424 63.80412146 161.10839844 75.70068359 C161.83117981 75.96667358 162.55396118 76.23266357 163.29864502 76.50671387 C244.81477166 106.46117681 330.30619823 126.53938434 474.10839844 140.70068359 C474.80714081 140.74271912 475.50588318 140.78475464 476.22579956 140.82806396 C494.94404921 141.93312534 513.6769484 141.94613694 532.42089844 141.95068359 C533.25782478 141.95112545 534.09475113 141.95156731 534.95703888 141.95202255 C563.76586816 141.95997308 592.40012537 141.30311373 621.10839844 138.70068359 C622.05346252 138.61582703 622.99852661 138.53097046 623.972229 138.44354248 C701.15800258 131.43818737 777.24026723 116.14928126 851.10839844 92.70068359 C851.86173462 92.46260986 852.6150708 92.22453613 853.39123535 91.97924805 C883.14259197 82.5668076 912.29787382 71.5263643 941.22631836 59.84277344 C947.93618817 57.18383477 954.54028607 56.5113128 961.48339844 58.82568359 C965.20636874 61.4849481 968.03883401 64.56155474 970.10839844 68.70068359 C970.54747111 75.28677369 969.82129715 79.5525286 965.33105469 84.76318359 C941.4860624 106.15037378 911.38411345 121.97901917 883.10839844 136.70068359 C882.06361328 137.24499023 881.01882813 137.78929687 879.94238281 138.35009766 C805.20144749 177.02798693 722.91685208 201.76735571 607.73339844 218.45068359 C606.8755072 218.55182465 606.01761597 218.6529657 605.13372803 218.75717163 C578.16169059 221.90136837 551.21783755 223.08854609 524.08657074 223.01853943 C521.87682423 223.0130746 519.66708851 223.01072404 517.45733643 223.00866699 C492.58361157 222.97267956 467.87378929 222.13811153 443.10839844 219.70068359 C442.35604919 219.62807312 441.60369995 219.55546265 440.82855225 219.48065186 C362.10173887 211.84094832 284.89140074 192.2100651 183.01806641 149.07763672 C180.01251722 147.65530936 177.00000759 146.24841079 173.98730469 144.84130859 C138.79921043 128.29419819 105.20561111 108.63132322 73.10839844 86.70068359 C72.36541504 86.1934375 71.62243164 85.68619141 70.85693359 85.16357422 C52.552391 72.61831146 34.93651381 59.22181164 17.81738281 45.10546875 C16.22851521 43.79941958 14.62977791 42.50540278 13.03027344 41.21240234 C7.69475307 36.89778462 2.52399511 32.45188595 -2.54394531 27.82568359 C-4.70964974 25.86537875 -6.91619511 23.96749021 -9.14160156 22.07568359 C-18.41562047 13.85724407 -18.41562047 13.85724407 -19.39941406 9.39990234 C-19.59026608 5.51288284 -19.39507973 3.39513625 -17.07910156 0.20068359 C-11.58461533 -3.56696411 -5.78539116 -2.59961599 0 0 Z " fill="#FF9900" transform="translate(276.8916015625,871.29931640625)"/>
<path d="M0 0 C58.96638993 -1.22019345 58.96638993 -1.22019345 76.63574219 13.55273438 C82.5041722 19.89804823 81.59215862 30.19179478 81.52734375 38.1875 C81.52397003 38.84495209 81.52059631 39.50240417 81.51712036 40.17977905 C81.30836679 68.4665289 73.73032109 96.04151102 63.08984375 122.125 C62.60741211 123.31222656 62.60741211 123.31222656 62.11523438 124.5234375 C52.04995839 148.89814841 38.23441235 170.07586346 20.08984375 189.125 C18.89488281 190.41664063 18.89488281 190.41664063 17.67578125 191.734375 C8.03592571 201.87113031 8.03592571 201.87113031 0.8828125 202.23828125 C-1.28515625 202.0625 -1.28515625 202.0625 -4.91015625 201.125 C-7.40489441 197.38289276 -7.38859311 194.45555263 -6.91015625 190.125 C-6.10741126 187.50485706 -5.2765765 185.16563644 -4.19921875 182.671875 C-3.91554443 181.98257401 -3.63187012 181.29327301 -3.33959961 180.58308411 C-2.7316116 179.10818728 -2.1176997 177.63572063 -1.49835205 176.16555786 C0.14704837 172.252662 1.74043634 168.31858483 3.33984375 164.38671875 C3.66222015 163.59712265 3.98459656 162.80752655 4.31674194 161.9940033 C26.24123501 112.43825818 26.24123501 112.43825818 27.85546875 59.91015625 C25.34256199 54.05098079 22.19653394 51.92428291 16.52734375 49.375 C-17.37427481 36.42848226 -61.12454002 44.89317941 -96.10180664 49.44799805 C-96.95740173 49.55793594 -97.81299683 49.66787384 -98.69451904 49.78114319 C-100.294684 49.98745667 -101.89431096 50.1980098 -103.4932251 50.4138031 C-109.05931564 51.13049638 -114.8265612 51.83659886 -120.34765625 50.5625 C-121.91015625 49.125 -121.91015625 49.125 -122.84765625 45.8125 C-122.91934832 41.58266772 -122.56324301 40.35844949 -119.91015625 37.125 C-89.27128564 7.90159716 -40.45486664 1.29326247 0 0 Z " fill="#FF9900" transform="translate(1260.91015625,847.875)"/>
</svg>
