<?xml version="1.0" encoding="UTF-8"?>
<svg version="1.1" xmlns="http://www.w3.org/2000/svg" width="512" height="512">
<path d="M0 0 C21.15163014 17.98802067 21.15163014 17.98802067 23.16577148 28.04589844 C22.31073499 32.14135985 19.97136012 33.57440882 16.67749023 35.79589844 C15.47464627 36.66378149 14.27414845 37.53492474 13.07592773 38.40917969 C12.47748047 38.84053223 11.8790332 39.27188477 11.26245117 39.71630859 C7.07533734 42.81898147 3.2949205 46.36676414 -0.44750977 49.98339844 C-1.18356445 50.69367188 -1.91961914 51.40394531 -2.67797852 52.13574219 C-21.63622855 71.76508072 -30.97239218 98.66089521 -30.59594727 125.66699219 C-29.93685191 149.69155829 -21.8340622 172.44433808 -6.44750977 190.98339844 C-5.94735352 191.634375 -5.44719727 192.28535156 -4.93188477 192.95605469 C2.56429115 202.41243752 13.75812296 210.57270899 24.47827148 216.01855469 C25.16115234 216.366521 25.8440332 216.7144873 26.54760742 217.07299805 C27.90279694 217.75171306 29.26667258 218.41341281 30.6394043 219.0559082 C33.45676616 220.45328175 35.26466715 221.37007361 36.62670898 224.27246094 C36.52827984 227.86771477 35.55273999 230.90338713 34.30249023 234.23339844 C33.90139038 235.32563721 33.90139038 235.32563721 33.4921875 236.43994141 C24.2008782 261.14701547 12.46531558 284.56834938 -3.0144043 305.98828125 C-4.56463044 308.14644957 -6.08285507 310.32519938 -7.59985352 312.50683594 C-14.26453561 322.01543437 -21.32153011 330.69372998 -29.44750977 338.98339844 C-30.1887207 339.76328125 -30.92993164 340.54316406 -31.69360352 341.34667969 C-44.79227497 354.90495364 -61.85816504 363.76641296 -80.94750977 364.29589844 C-98.37325454 363.66177381 -113.59112685 358.12185833 -129.45214844 351.39233398 C-158.00369946 339.46811975 -184.80170176 345.42606863 -212.19677734 356.65429688 C-223.5552011 361.27871124 -234.58064473 364.57006798 -246.94750977 364.42089844 C-248.30078369 364.40953857 -248.30078369 364.40953857 -249.68139648 364.39794922 C-257.11542119 364.21559266 -263.60228288 362.99114964 -270.44750977 359.98339844 C-271.36274414 359.5825 -272.27797852 359.18160156 -273.22094727 358.76855469 C-319.4062728 335.94056428 -351.41737156 269.98594272 -367.11804199 223.95791626 C-376.37660652 196.3824816 -382.744315 167.15069457 -383.44750977 137.98339844 C-383.46797363 137.30116211 -383.4884375 136.61892578 -383.50952148 135.91601562 C-384.70463477 92.24005744 -373.33522038 47.05113151 -343.16625977 14.39746094 C-319.85962749 -10.14962679 -289.08425621 -24.54458736 -255.15454102 -26.05175781 C-234.71090717 -25.8578772 -216.2707713 -19.05292403 -197.30493164 -12.06787109 C-193.58764025 -10.70024834 -189.86320206 -9.35422704 -186.13500977 -8.01660156 C-185.10762695 -7.64535156 -184.08024414 -7.27410156 -183.02172852 -6.89160156 C-168.86376498 -2.079183 -156.8204999 -7.09989932 -143.44750977 -12.01660156 C-118.02612744 -21.35023063 -118.02612744 -21.35023063 -107.88500977 -24.01660156 C-107.14234863 -24.21205566 -106.3996875 -24.40750977 -105.63452148 -24.60888672 C-70.12983178 -33.49524058 -28.07388988 -23.01469471 0 0 Z " fill="#D6D5D8" transform="translate(429.447509765625,148.0166015625)"/>
<path d="M0 0 C1.04542969 -0.01417969 2.09085937 -0.02835937 3.16796875 -0.04296875 C5.8125 0.1875 5.8125 0.1875 7.8125 2.1875 C11.799252 32.87543979 0.30591857 62.55121278 -17.98828125 86.63623047 C-32.97028873 106.01645757 -55.45373144 120.21665254 -79.6171875 124.7578125 C-96.74079008 126.81863994 -96.74079008 126.81863994 -102.1875 123.1875 C-108.22911736 103.34148948 -99.45430573 78.8368262 -90.3125 61.375 C-75.71136958 34.51810663 -50.66045982 12.90472476 -21.25708008 3.90527344 C-14.16600563 1.84659915 -7.42473327 0.04611636 0 0 Z " fill="#D6D5D8" transform="translate(353.1875,-0.1875)"/>
</svg>
