<?xml version="1.0" encoding="UTF-8"?>
<svg version="1.1" xmlns="http://www.w3.org/2000/svg" width="512" height="512">
<path d="M0 0 C79.2 0 158.4 0 240 0 C240.0825 37.82625 240.165 75.6525 240.25 114.625 C240.28641602 126.57799316 240.32283203 138.53098633 240.36035156 150.84619141 C240.37841797 165.41870117 240.37841797 165.41870117 240.3817749 172.23617554 C240.38550834 177.00765388 240.40052523 181.77895503 240.42230225 186.55038452 C240.4496975 192.63317904 240.4579723 198.71571514 240.4522891 204.79856563 C240.45347784 207.03311951 240.46143413 209.26768225 240.47686052 211.5021832 C240.49671269 214.51737853 240.49197722 217.53156569 240.48101807 220.54678345 C240.49849405 221.86256661 240.49849405 221.86256661 240.51632309 223.20493126 C240.46339835 228.61059149 239.70895901 231.79401498 236 236 C230.99174474 240.41642407 226.90777746 240.5655036 220.54678345 240.48101807 C219.60471039 240.48444214 218.66263733 240.48786621 217.6920166 240.49139404 C214.52955739 240.4980079 211.36794801 240.4759338 208.20556641 240.45410156 C205.90200515 240.45287611 203.5984424 240.45341038 201.29488182 240.45556259 C195.12508455 240.45646577 188.95559748 240.43327975 182.78587341 240.40512085 C176.99680603 240.38234388 171.20781416 240.38126854 165.41870117 240.37841797 C148.48742635 240.35742726 131.55620926 240.30158266 114.625 240.25 C76.79875 240.1675 38.9725 240.085 0 240 C0 160.8 0 81.6 0 0 Z " fill="#FFC107" transform="translate(272,272)"/>
<path d="M0 0 C79.2 0 158.4 0 240 0 C240 79.2 240 158.4 240 240 C202.17375 240.0825 164.3475 240.165 125.375 240.25 C107.44551025 240.30462402 107.44551025 240.30462402 89.15380859 240.36035156 C74.58129883 240.37841797 74.58129883 240.37841797 67.76382446 240.3817749 C62.99234612 240.38550834 58.22104497 240.40052523 53.44961548 240.42230225 C47.36682096 240.4496975 41.28428486 240.4579723 35.20143437 240.4522891 C32.96688049 240.45347784 30.73231775 240.46143413 28.4978168 240.47686052 C25.48262147 240.49671269 22.46843431 240.49197722 19.45321655 240.48101807 C18.13743339 240.49849405 18.13743339 240.49849405 16.79506874 240.51632309 C11.38940851 240.46339835 8.20598502 239.70895901 4 236 C-0.41642407 230.99174474 -0.5655036 226.90777746 -0.48101807 220.54678345 C-0.48444214 219.60471039 -0.48786621 218.66263733 -0.49139404 217.6920166 C-0.4980079 214.52955739 -0.4759338 211.36794801 -0.45410156 208.20556641 C-0.45287611 205.90200515 -0.45341038 203.5984424 -0.45556259 201.29488182 C-0.45646577 195.12508455 -0.43327975 188.95559748 -0.40512085 182.78587341 C-0.38234388 176.99680603 -0.38126854 171.20781416 -0.37841797 165.41870117 C-0.35742726 148.48742635 -0.30158266 131.55620926 -0.25 114.625 C-0.1675 76.79875 -0.085 38.9725 0 0 Z " fill="#2196F3" transform="translate(0,272)"/>
<path d="M0 0 C37.82625 -0.0825 75.6525 -0.165 114.625 -0.25 C132.55448975 -0.30462402 132.55448975 -0.30462402 150.84619141 -0.36035156 C165.41870117 -0.37841797 165.41870117 -0.37841797 172.23617554 -0.3817749 C177.00765388 -0.38550834 181.77895503 -0.40052523 186.55038452 -0.42230225 C192.63317904 -0.4496975 198.71571514 -0.4579723 204.79856563 -0.4522891 C207.03311951 -0.45347784 209.26768225 -0.46143413 211.5021832 -0.47686052 C214.51737853 -0.49671269 217.53156569 -0.49197722 220.54678345 -0.48101807 C221.42397223 -0.49266872 222.301161 -0.50431938 223.20493126 -0.51632309 C228.61059149 -0.46339835 231.79401498 0.29104099 236 4 C240.41642407 9.00825526 240.5655036 13.09222254 240.48101807 19.45321655 C240.48444214 20.39528961 240.48786621 21.33736267 240.49139404 22.3079834 C240.4980079 25.47044261 240.4759338 28.63205199 240.45410156 31.79443359 C240.45287611 34.09799485 240.45341038 36.4015576 240.45556259 38.70511818 C240.45646577 44.87491545 240.43327975 51.04440252 240.40512085 57.21412659 C240.38234388 63.00319397 240.38126854 68.79218584 240.37841797 74.58129883 C240.35742726 91.51257365 240.30158266 108.44379074 240.25 125.375 C240.12625 182.114375 240.12625 182.114375 240 240 C160.8 240 81.6 240 0 240 C0 160.8 0 81.6 0 0 Z " fill="#4CAF50" transform="translate(272,0)"/>
<path d="M0 0 C0.94207306 -0.00342407 1.88414612 -0.00684814 2.85476685 -0.01037598 C6.01722605 -0.01698983 9.17883544 0.00508427 12.34121704 0.0269165 C14.6447783 0.02814195 16.94834105 0.02760769 19.25190163 0.02545547 C25.4216989 0.0245523 31.59118597 0.04773832 37.76091003 0.07589722 C43.54997742 0.09867419 49.33896929 0.09974953 55.12808228 0.1026001 C72.0593571 0.12359081 88.99057419 0.17943541 105.92178345 0.23101807 C162.66115845 0.35476807 162.66115845 0.35476807 220.54678345 0.48101807 C220.54678345 79.68101807 220.54678345 158.88101807 220.54678345 240.48101807 C141.34678345 240.48101807 62.14678345 240.48101807 -19.45321655 240.48101807 C-19.53571655 202.65476807 -19.61821655 164.82851807 -19.70321655 125.85601807 C-19.73963257 113.9030249 -19.77604858 101.95003174 -19.81356812 89.63482666 C-19.83163452 75.06231689 -19.83163452 75.06231689 -19.83499146 68.24484253 C-19.83872489 63.47336418 -19.85374178 58.70206304 -19.8755188 53.93063354 C-19.90291405 47.84783902 -19.91118886 41.76530293 -19.90550566 35.68245244 C-19.9066944 33.44789855 -19.91465068 31.21333582 -19.93007708 28.97883487 C-19.94992924 25.96363954 -19.94519377 22.94945237 -19.93423462 19.93423462 C-19.94588528 19.05704584 -19.95753593 18.17985706 -19.96953964 17.27608681 C-19.91661491 11.87042658 -19.16217556 8.68700308 -15.45321655 4.48101807 C-10.44496129 0.064594 -6.36099402 -0.08448554 0 0 Z " fill="#F44336" transform="translate(19.453216552734375,-0.48101806640625)"/>
</svg>
