<?xml version="1.0" encoding="UTF-8"?>
<svg version="1.1" xmlns="http://www.w3.org/2000/svg" width="512" height="512">
<path d="M0 0 C32.01 0 64.02 0 97 0 C111.20439053 37.66910197 111.20439053 37.66910197 115.5234375 49.13671875 C115.82578686 49.93949438 116.12813622 50.74227001 116.43964767 51.56937218 C123.12113736 69.31125603 129.78289833 87.06051613 136.4375 104.8125 C136.71307739 105.54760929 136.98865479 106.28271858 137.27258301 107.04010391 C141.22497394 117.58330049 145.1762068 128.12693094 149.12715149 138.67066956 C153.31920571 149.85781075 157.51154783 161.04484386 161.70510578 172.23142147 C163.35495561 176.63259294 165.00440083 181.03391549 166.65312004 185.43551064 C174.7233456 206.97448203 182.85997042 228.48706467 191 250 C191.33 167.5 191.66 85 192 0 C223.68 0 255.36 0 288 0 C288 168.96 288 337.92 288 512 C255.99 512 223.98 512 191 512 C176.79560947 474.33089803 176.79560947 474.33089803 172.4765625 462.86328125 C172.17421314 462.06050562 171.87186378 461.25772999 171.56035233 460.43062782 C164.87886264 442.68874397 158.21710167 424.93948387 151.5625 407.1875 C151.28692261 406.45239071 151.01134521 405.71728142 150.72741699 404.95989609 C146.77502606 394.41669951 142.8237932 383.87306906 138.87284851 373.32933044 C134.68079429 362.14218925 130.48845217 350.95515614 126.29489422 339.76857853 C124.64504439 335.36740706 122.99559917 330.96608451 121.34687996 326.56448936 C113.2766544 305.02551797 105.14002958 283.51293533 97 262 C96.67 344.5 96.34 427 96 512 C64.32 512 32.64 512 0 512 C0 343.04 0 174.08 0 0 Z " fill="#F34235" transform="translate(112,0)"/>
<path d="M0 0 C1.96165043 2.94247565 3.04473883 5.50486173 4.27709961 8.80737305 C4.73144882 10.01914719 5.18579803 11.23092133 5.65391541 12.47941589 C6.15345286 13.82349405 6.65292688 15.16759578 7.15234375 16.51171875 C7.67991917 17.92296461 8.20784624 19.33407905 8.73609924 20.74507141 C9.87430414 23.78747439 11.01010059 26.83076164 12.14404297 29.87475586 C13.95944277 34.74799474 15.78008228 39.61926548 17.6015625 44.49023438 C19.82235608 50.43002279 22.04194614 56.37025807 24.2599659 62.31108284 C28.1140943 72.63373492 31.97741944 82.95290851 35.84765625 93.26953125 C36.12347345 94.00476517 36.39929066 94.73999908 36.68346596 95.49751282 C37.79316485 98.45545248 38.9029421 101.41336273 40.01284122 104.37122726 C41.95529656 109.54784441 43.89697264 114.72475326 45.83813477 119.90185547 C46.25284672 121.00789186 46.25284672 121.00789186 46.6759367 122.13627243 C47.23560228 123.62890824 47.79526637 125.1215446 48.35492897 126.61418152 C52.70852231 138.22513393 57.06363362 149.83551596 61.42022705 161.44534302 C63.53220165 167.07353488 65.64379633 172.70186927 67.75531387 178.33023262 C69.17860321 182.12400012 70.60208971 185.91769334 72.02612305 189.71118164 C72.29638054 190.43118095 72.56663803 191.15118027 72.84508514 191.89299774 C74.32074804 195.82547889 74.32074804 195.82547889 75.80130482 199.75611877 C76.58438704 201.85626686 77.35274326 203.96190267 78.11638165 206.06919861 C80.61911099 212.92874226 83.2219684 219.61020135 86.40718079 226.18432617 C98.66508424 252.34456412 97.73666405 279.00306351 97.34599697 307.36447748 C97.25114021 314.44267745 97.23337376 321.52054768 97.21864685 328.59929273 C97.19046111 341.21431077 97.10469052 353.8282123 96.98071289 366.44262695 C96.86068195 378.66848313 96.76901234 390.89403189 96.71411133 403.12036133 C96.71069592 403.87882387 96.70728052 404.63728641 96.70376161 405.41873267 C96.68679144 409.22516489 96.67036436 413.03159923 96.65420687 416.83803499 C96.52027257 448.22634754 96.28108539 479.61257461 96 511 C64.32 511 32.64 511 0 511 C0 342.37 0 173.74 0 0 Z " fill="#D32F2F" transform="translate(112,1)"/>
<path d="M0 0 C31.68 0 63.36 0 96 0 C96 168.3 96 336.6 96 510 C93.59305681 507.59305681 92.97363593 505.63772765 91.79882812 502.44213867 C91.36130722 501.26075821 90.92378632 500.07937775 90.4730072 498.86219788 C89.99236896 497.54747403 89.51178501 496.23273033 89.03125 494.91796875 C88.52357123 493.54187079 88.01534387 492.16597511 87.50660706 490.79026794 C86.41021654 487.82270997 85.31705486 484.85399032 84.22634888 481.88433838 C81.58101802 474.68323765 78.91789801 467.48870828 76.2561512 460.29366302 C75.33243129 457.7963665 74.40931122 455.29884874 73.4861908 452.80133057 C67.67553305 437.08803352 61.77930207 421.40754298 55.85947037 405.73510742 C53.7124361 400.05048836 51.56716642 394.36520279 49.42172813 388.67998123 C48.88040379 387.24553725 48.33904361 385.8111068 47.79764748 384.37668991 C41.10996326 366.65670443 34.45979129 348.92266954 27.8125 331.1875 C27.26905366 329.73765036 26.72560681 328.28780091 26.18215942 326.83795166 C25.65340527 325.42729307 25.12467145 324.01662686 24.59594727 322.60595703 C24.36671914 321.99688678 24.13749102 321.38781653 23.90131658 320.76028961 C22.58718668 317.26387934 21.28392859 313.76450074 20.01266193 310.25225925 C17.60297111 303.64290028 15.1287058 297.1310414 12.12231946 290.76684022 C-1.44814069 261.96244505 -2.05485392 234.52082517 -1.55307274 203.1178331 C-1.44331222 196.05598779 -1.42309833 188.99457356 -1.40613098 181.93199694 C-1.37365921 169.34728896 -1.27483835 156.76407625 -1.1315918 144.18017578 C-0.99295847 131.98851772 -0.88725486 119.79727227 -0.82397461 107.60498047 C-0.82003376 106.84783154 -0.8160929 106.09068262 -0.81203263 105.31058979 C-0.79245077 101.51051137 -0.77349666 97.71043012 -0.75485408 93.91034698 C-0.60047243 62.60557056 -0.32458099 31.30358927 0 0 Z " fill="#D32F2F" transform="translate(304,0)"/>
</svg>
